<?xml version="1.0" standalone="no"?><!DOCTYPE svg PUBLIC "-//W3C//DTD SVG 1.1//EN" "http://www.w3.org/Graphics/SVG/1.1/DTD/svg11.dtd"><svg t="1540282133193" class="icon" style="" viewBox="0 0 1024 1024" version="1.1" xmlns="http://www.w3.org/2000/svg" p-id="2587" xmlns:xlink="http://www.w3.org/1999/xlink" width="128" height="128"><defs><style type="text/css"></style></defs><path d="M871.3 177.8H581.6c-31.5 0-49.1 36.5-29.4 61.1L662 376c12.1 15.1 10.8 37-3.2 50.5L483.3 597c-15 14.6-15.2 38.7-0.5 53.5l184.1 185c7.1 7.1 16.7 11.1 26.7 11.1h177.6c49.1 0 88.9-39.8 88.9-88.9V266.8c0.1-49.2-39.7-89-88.8-89z" p-id="2588" fill="#8a8a8a"></path><path d="M546.7 376L399.3 191.9c-7.1-8.9-17.9-14.1-29.4-14.1h-217c-49.1 0-88.9 39.8-88.9 88.9v490.9c0 49.1 39.8 88.9 88.9 88.9h319.3c33.5 0 50.3-40.4 26.7-64.1L367.5 650.5c-14.8-14.9-14.6-38.9 0.5-53.5l175.5-170.5c13.9-13.5 15.3-35.4 3.2-50.5z" p-id="2589" fill="#8a8a8a"></path></svg>